<svg width="17" xmlns="http://www.w3.org/2000/svg" height="17" id="screenshot-1f452e2f-80b6-80d7-8006-9490ce52a740" viewBox="6953.5 307.5 17 17" xmlns:xlink="http://www.w3.org/1999/xlink" fill="none" version="1.1"><g id="shape-1f452e2f-80b6-80d7-8006-9490ce52a740"><g class="fills" id="fills-1f452e2f-80b6-80d7-8006-9490ce52a740"><path d="M6955.000,323.000L6956.262,323.000L6966.498,312.763L6965.236,311.502L6955.000,321.738L6955.000,323.000ZZM6954.404,324.500C6954.148,324.500,6953.933,324.413,6953.760,324.240C6953.587,324.067,6953.500,323.852,6953.500,323.596L6953.500,321.863C6953.500,321.620,6953.547,321.387,6953.640,321.166C6953.734,320.945,6953.863,320.753,6954.027,320.588L6966.691,307.931C6966.842,307.793,6967.009,307.687,6967.191,307.612C6967.374,307.537,6967.566,307.500,6967.766,307.500C6967.967,307.500,6968.161,307.536,6968.349,307.607C6968.537,307.678,6968.703,307.791,6968.848,307.946L6970.069,309.183C6970.224,309.328,6970.335,309.494,6970.401,309.683C6970.467,309.871,6970.500,310.060,6970.500,310.248C6970.500,310.449,6970.466,310.641,6970.397,310.824C6970.328,311.007,6970.219,311.174,6970.069,311.325L6957.412,323.973C6957.247,324.137,6957.055,324.266,6956.834,324.359C6956.613,324.453,6956.380,324.500,6956.137,324.500L6954.404,324.500ZZM6969.010,310.246L6967.754,308.990L6969.010,310.246ZZM6965.856,312.144L6965.236,311.502L6966.498,312.763L6965.856,312.144ZZ" style="fill: rgb(102, 102, 102); fill-opacity: 1;"/></g></g></svg>