<svg width="16" xmlns="http://www.w3.org/2000/svg" height="16" id="screenshot-8d925c25-b884-80c7-8006-95f2310b33c5" viewBox="6922 308 16 16" xmlns:xlink="http://www.w3.org/1999/xlink" fill="none" version="1.1"><g id="shape-8d925c25-b884-80c7-8006-95f2310b33c5"><g class="fills" id="fills-8d925c25-b884-80c7-8006-95f2310b33c5"><path d="M6929.077,316.923L6922.923,316.923C6922.662,316.923,6922.442,316.835,6922.266,316.658C6922.089,316.481,6922.000,316.261,6922.000,316.000C6922.000,315.738,6922.089,315.519,6922.266,315.342C6922.442,315.165,6922.662,315.077,6922.923,315.077L6929.077,315.077L6929.077,308.923C6929.077,308.662,6929.165,308.442,6929.342,308.266C6929.519,308.089,6929.739,308.000,6930.000,308.000C6930.262,308.000,6930.481,308.089,6930.658,308.266C6930.835,308.442,6930.923,308.662,6930.923,308.923L6930.923,315.077L6937.077,315.077C6937.338,315.077,6937.558,315.165,6937.734,315.342C6937.911,315.519,6938.000,315.739,6938.000,316.000C6938.000,316.262,6937.911,316.481,6937.734,316.658C6937.558,316.835,6937.338,316.923,6937.077,316.923L6930.923,316.923L6930.923,323.077C6930.923,323.338,6930.835,323.558,6930.658,323.734C6930.481,323.911,6930.261,324.000,6930.000,324.000C6929.738,324.000,6929.519,323.911,6929.342,323.734C6929.165,323.558,6929.077,323.338,6929.077,323.077L6929.077,316.923ZL6929.077,316.923Z" style="fill: rgb(102, 102, 102); fill-opacity: 1;"/></g></g></svg>