<svg width="24" xmlns="http://www.w3.org/2000/svg" height="24" id="screenshot-cba577d6-319f-80c8-8006-7fb67c652722" viewBox="31987.745 1361.5 24 24" style="-webkit-print-color-adjust::exact" xmlns:xlink="http://www.w3.org/1999/xlink" fill="none" version="1.1">
  <g id="shape-cba577d6-319f-80c8-8006-7fb67c652722" style="fill:#000000" width="16" height="16" class="bi bi-pencil-square" rx="0" ry="0">
    <g id="shape-cba577d6-319f-80c8-8006-7fb67c652727">
      <g class="fills" id="fills-cba577d6-319f-80c8-8006-7fb67c652727">
        <rect rx="2" ry="2" x="31987.7448744741" y="1361.5000000000005" transform="matrix(1.000000, 0.000000, 0.000000, 1.000000, 0.000000, 0.000000)" width="24" height="24" fill="none" style="fill:#0095db;fill-opacity:0.1">
        </rect>
      </g>
    </g>
    <g id="shape-cba577d6-319f-80c8-8006-7fb67c652728" rx="0" ry="0">
      <g id="shape-cba577d6-319f-80c8-8006-7fb67c652729">
        <g class="fills" id="fills-cba577d6-319f-80c8-8006-7fb67c652729">
          <path d="M32005.685,1368.692C32005.846,1368.854,32005.846,1369.115,32005.685,1369.276L32004.822,1370.140L32003.167,1368.485L32004.030,1367.621C32004.192,1367.460,32004.454,1367.460,32004.615,1367.621L32005.685,1368.692ZZM32004.237,1370.725L32002.582,1369.069L31996.944,1374.708C31996.898,1374.754,31996.864,1374.809,31996.843,1374.871L31996.177,1376.868C31996.153,1376.943,31996.172,1377.024,31996.227,1377.080C31996.283,1377.135,31996.365,1377.154,31996.439,1377.130L31998.437,1376.464C31998.498,1376.444,31998.553,1376.410,31998.599,1376.364L32004.237,1370.725ZZ" style="fill:#0095db;fill-opacity:1">
          </path>
        </g>
      </g>
      <g id="shape-cba577d6-319f-80c8-8006-7fb67c65272a">
        <g class="fills" id="fills-cba577d6-319f-80c8-8006-7fb67c65272a">
          <path d="M31993.684,1378.259C31993.684,1378.944,31994.240,1379.500,31994.925,1379.500L32004.028,1379.500C32004.714,1379.500,32005.270,1378.944,32005.270,1378.259L32005.270,1373.293C32005.270,1373.065,32005.084,1372.879,32004.856,1372.879C32004.627,1372.879,32004.442,1373.065,32004.442,1373.293L32004.442,1378.259C32004.442,1378.487,32004.257,1378.672,32004.028,1378.672L31994.925,1378.672C31994.697,1378.672,31994.511,1378.487,31994.511,1378.259L31994.511,1369.155C31994.511,1368.927,31994.697,1368.742,31994.925,1368.742L32000.304,1368.742C32000.533,1368.742,32000.718,1368.556,32000.718,1368.328C32000.718,1368.099,32000.533,1367.914,32000.304,1367.914L31994.925,1367.914C31994.240,1367.914,31993.684,1368.470,31993.684,1369.155Z" fill-rule="evenodd" style="fill:#0095db;fill-opacity:1">
          </path>
        </g>
      </g>
    </g>
  </g>
</svg>