<svg width="24" xmlns="http://www.w3.org/2000/svg" height="24" id="screenshot-cba577d6-319f-80c8-8006-7fb67c652723" viewBox="31947.745 1361.5 24 24" style="-webkit-print-color-adjust::exact" xmlns:xlink="http://www.w3.org/1999/xlink" fill="none" version="1.1">
  <g id="shape-cba577d6-319f-80c8-8006-7fb67c652723" style="fill:#000000" height="24" width="24" rx="0" ry="0">
    <g id="shape-cba577d6-319f-80c8-8006-7fb67c65272b">
      <g class="fills" id="fills-cba577d6-319f-80c8-8006-7fb67c65272b">
        <rect rx="2" ry="2" x="31947.7448744741" y="1361.500000000001" transform="matrix(1.000000, 0.000000, 0.000000, 1.000000, 0.000000, 0.000000)" width="24" height="24" fill="none" style="fill:#0095db;fill-opacity:0.1">
        </rect>
      </g>
    </g>
    <g id="shape-cba577d6-319f-80c8-8006-7fb67c65272c">
      <g class="fills" id="fills-cba577d6-319f-80c8-8006-7fb67c65272c">
        <path d="M31954.914,1379.500C31954.592,1379.500,31954.317,1379.386,31954.088,1379.157C31953.859,1378.928,31953.745,1378.653,31953.745,1378.331L31953.745,1368.669C31953.745,1368.347,31953.859,1368.072,31954.088,1367.843C31954.317,1367.614,31954.592,1367.500,31954.914,1367.500L31964.576,1367.500C31964.897,1367.500,31965.173,1367.614,31965.402,1367.843C31965.630,1368.072,31965.745,1368.347,31965.745,1368.669L31965.745,1378.331C31965.745,1378.653,31965.630,1378.928,31965.402,1379.157C31965.173,1379.386,31964.897,1379.500,31964.576,1379.500L31954.914,1379.500ZZM31954.914,1378.955L31964.576,1378.955C31964.758,1378.955,31964.907,1378.896,31965.024,1378.779C31965.141,1378.662,31965.199,1378.513,31965.199,1378.331L31965.199,1369.604L31954.290,1369.604L31954.290,1378.331C31954.290,1378.513,31954.349,1378.662,31954.466,1378.779C31954.583,1378.896,31954.732,1378.955,31954.914,1378.955ZZM31959.745,1376.383C31958.966,1376.383,31958.261,1376.188,31957.631,1375.799C31957.001,1375.409,31956.518,1374.903,31956.180,1374.279C31956.518,1373.656,31957.001,1373.149,31957.631,1372.760C31958.261,1372.370,31958.966,1372.175,31959.745,1372.175C31960.524,1372.175,31961.229,1372.370,31961.859,1372.760C31962.488,1373.149,31962.972,1373.656,31963.310,1374.279C31962.972,1374.903,31962.488,1375.409,31961.859,1375.799C31961.229,1376.188,31960.524,1376.383,31959.745,1376.383ZZM31959.745,1375.838C31960.329,1375.838,31960.878,1375.701,31961.391,1375.429C31961.904,1375.156,31962.349,1374.773,31962.725,1374.279C31962.349,1373.786,31961.904,1373.403,31961.391,1373.130C31960.878,1372.857,31960.329,1372.721,31959.745,1372.721C31959.160,1372.721,31958.612,1372.857,31958.099,1373.130C31957.586,1373.403,31957.141,1373.786,31956.764,1374.279C31957.141,1374.773,31957.586,1375.156,31958.099,1375.429C31958.612,1375.701,31959.160,1375.838,31959.745,1375.838ZZM31959.745,1374.279ZM31959.750,1375.058C31959.967,1375.058,31960.151,1374.982,31960.300,1374.830C31960.449,1374.677,31960.524,1374.492,31960.524,1374.275C31960.524,1374.057,31960.448,1373.873,31960.295,1373.724C31960.143,1373.575,31959.958,1373.500,31959.740,1373.500C31959.523,1373.500,31959.339,1373.576,31959.190,1373.729C31959.040,1373.881,31958.966,1374.066,31958.966,1374.284C31958.966,1374.502,31959.042,1374.685,31959.194,1374.834C31959.347,1374.984,31959.532,1375.058,31959.750,1375.058ZZ" style="fill:#0095db">
        </path>
      </g>
    </g>
  </g>
</svg>